# xmcd
#
# Track frame offsets:
#	150
#	12510
#	31805
#	49680
#	64005
#	77955
#	91020
#	107695
#	118175
#	135475
#	156105
#	169307
#	184395
#	197095
#	212172
#	235907
#
# Disc length: 3328 seconds
#
# Revision: 0
# Processed by: cddbd v1.4PL0 Copyright (c) Steve Scherf et al.
# Submitted via: audiograbber 1.81.03
#
DISCID=d90cfe10
DTITLE=Various Artist - Country Time
DYEAR=1993
DGENRE=Country
TTITLE0=Joe Sun - Some Old Memory.
TTITLE1=Anne Khilström - En Ostämd Ton.
TTITLE2=Cajun du Nord - Marina, Marina.
TTITLE3=Thomas Haglund Band - Än En Gång 
TTITLE4=B Nice Boys - I'm Walking. 
TTITLE5=Joe Sun - You Sure Took My Time. 
TTITLE6=Anne Kihlström - Bilder Från Förr. 
TTITLE7=Cajun du Nord - Rosco Stomp. 
TTITLE8=Thomas Haglund Band - Stayin' Out Late. 
TTITLE9=B Nice Boys - Dark Hollow. Låt 10
TTITLE10=Joe Sun - One Tear At A Time. 
TTITLE11=Anne Kihlström - Achy Breaky Heart. 
TTITLE12=Cajun du Nord - Jole Blon. 
TTITLE13=Thomas Haglund Band - Jeanine, Jeanine. 
TTITLE14=B Nice Boys - Hobo's Song. 
TTITLE15=Anne Kihlström - George Jones Woke Me Up. 
EXTD=
EXTT0=
EXTT1=
EXTT2=
EXTT3=
EXTT4=
EXTT5=
EXTT6=
EXTT7=
EXTT8=
EXTT9=
EXTT10=
EXTT11=
EXTT12=
EXTT13=
EXTT14=
EXTT15=
PLAYORDER=
